<?xml version="1.0" encoding="UTF-8" standalone="no"?>
<!-- Created with Inkscape (http://www.inkscape.org/) -->

<svg
   version="1.1"
   id="svg2"
   width="1511.8134"
   height="944.88135"
   viewBox="0 0 1511.8134 944.88135"
   sodipodi:docname="Logo HTH - Final.ai"
   xmlns:inkscape="http://www.inkscape.org/namespaces/inkscape"
   xmlns:sodipodi="http://sodipodi.sourceforge.net/DTD/sodipodi-0.dtd"
   xmlns="http://www.w3.org/2000/svg"
   xmlns:svg="http://www.w3.org/2000/svg">
  <defs
     id="defs6">
    <clipPath
       clipPathUnits="userSpaceOnUse"
       id="clipPath52">
      <path
         d="M 0,708.661 H 1133.858 V 0 H 0 Z"
         id="path50" />
    </clipPath>
  </defs>
  <sodipodi:namedview
     id="namedview4"
     pagecolor="#ffffff"
     bordercolor="#000000"
     borderopacity="0.25"
     inkscape:showpageshadow="2"
     inkscape:pageopacity="0.0"
     inkscape:pagecheckerboard="0"
     inkscape:deskcolor="#d1d1d1" />
  <g
     id="g8"
     inkscape:groupmode="layer"
     inkscape:label="Logo HTH - Final"
     transform="matrix(1.3333333,0,0,-1.3333333,0,944.88133)">
    <g
       id="g10"
       transform="translate(513.0252,533.5542)">
      <path
         d="M 0,0 V -0.121 L 0.157,0 Z"
         style="fill:#00919a;fill-opacity:1;fill-rule:nonzero;stroke:none"
         id="path12" />
    </g>
    <g
       id="g14"
       transform="translate(674.6719,363.2073)">
      <path
         d="m 0,0 h -49.646 v -125.779 l -23.578,-18.101 v 308.178 l 23.578,-18.101 V 20.904 H 0"
         style="fill:#00919a;fill-opacity:1;fill-rule:nonzero;stroke:none"
         id="path16" />
    </g>
    <g
       id="g18"
       transform="translate(672.1611,384.1111)">
      <path
         d="M 0,0 V 89.025 L 23.577,70.924 V -92.367 L 0,-110.467 v 89.563"
         style="fill:#00919a;fill-opacity:1;fill-rule:nonzero;stroke:none"
         id="path20" />
    </g>
    <g
       id="g22"
       transform="translate(457.4937,363.2073)">
      <path
         d="M 0,0 H 49.646 V -125.779 L 73.223,-143.88 V 164.298 L 49.646,146.197 V 20.904 H 0"
         style="fill:#00919a;fill-opacity:1;fill-rule:nonzero;stroke:none"
         id="path24" />
    </g>
    <g
       id="g26"
       transform="translate(460.0049,384.1111)">
      <path
         d="M 0,0 V 89.025 L -23.578,70.924 V -92.367 L 0,-110.467 v 89.563"
         style="fill:#00919a;fill-opacity:1;fill-rule:nonzero;stroke:none"
         id="path28" />
    </g>
    <g
       id="g30"
       transform="translate(577.8711,574.4964)">
      <path
         d="m 0,0 v -13.758 l 117.867,-90.596 v 24.029 l -129.656,99.658 -52.9,-40.614 -0.157,-0.12 -44.618,-34.255 -31.98,-24.552 v -24.029 l 46.337,35.573 30.261,23.233 23.577,18.101 17.692,13.582 V 0 Z"
         style="fill:#00919a;fill-opacity:1;fill-rule:nonzero;stroke:none"
         id="path32" />
    </g>
    <g
       id="g34"
       transform="translate(554.2939,576.3182)">
      <path
         d="m 0,0 v -22.211 -4.697 -347.233 l 11.789,-9.051 11.788,9.051 v 347.223 4.696 l 0,22.222 z"
         style="fill:#00919a;fill-opacity:1;fill-rule:nonzero;stroke:none"
         id="path36" />
    </g>
    <g
       id="g38"
       transform="translate(577.8711,186.0833)">
      <path
         d="M 0,0 -11.789,-9.05 -23.577,0 -41.269,13.583 -64.846,31.684 -95.107,54.916 -141.444,90.49 V 66.461 l 31.98,-24.552 97.675,-74.989 129.656,99.541 V 90.49 Z"
         style="fill:#00919a;fill-opacity:1;fill-rule:nonzero;stroke:none"
         id="path40" />
    </g>
    <g
       id="g42"
       transform="translate(447.3022,110.2415)">
      <path
         d="M 0,0 H 6.075 L 3.038,9.03 Z M -10.875,-13.093 0.956,16.74 h 4.106 l 11.944,-29.833 h -5.794 l -3.074,7.69 H -1.913 l -3.149,-7.69 z"
         style="fill:#00919a;fill-opacity:1;fill-rule:nonzero;stroke:none"
         id="path44" />
    </g>
    <g
       id="g46">
      <g
         id="g48"
         clip-path="url(#clipPath52)">
        <g
           id="g54"
           transform="translate(483.7114,113.8294)">
          <path
             d="M 0,0 H 0.957 C 2.832,0 4.187,0.105 5.025,0.315 5.812,0.604 6.437,1.078 6.9,1.735 7.362,2.393 7.594,3.148 7.594,4.003 7.594,4.884 7.341,5.64 6.834,6.271 6.328,6.901 5.675,7.328 4.875,7.552 4.1,7.71 2.794,7.789 0.957,7.789 H 0 Z m 0,-16.681 h -5.269 v 29.833 h 6.694 0.994 c 1.037,0 1.887,-0.03 2.55,-0.089 0.662,-0.059 1.353,-0.204 2.072,-0.434 0.718,-0.231 1.403,-0.576 2.053,-1.036 1.175,-0.829 2.097,-1.915 2.765,-3.257 0.669,-1.343 1.004,-2.764 1.004,-4.264 0,-0.973 -0.125,-1.927 -0.375,-2.862 C 12.237,0.275 11.85,-0.606 11.325,-1.435 10.8,-2.264 10.188,-2.975 9.488,-3.566 8.875,-4.08 8.172,-4.475 7.378,-4.751 6.584,-5.027 5.778,-5.205 4.959,-5.284 4.141,-5.363 3.231,-5.402 2.231,-5.402 H 1.031 0 Z"
             style="fill:#00919a;fill-opacity:1;fill-rule:nonzero;stroke:none"
             id="path56" />
        </g>
        <g
           id="g58"
           transform="translate(514.4375,113.8294)">
          <path
             d="M 0,0 H 0.957 C 2.832,0 4.187,0.105 5.025,0.315 5.812,0.604 6.437,1.078 6.9,1.735 7.362,2.393 7.594,3.148 7.594,4.003 7.594,4.884 7.341,5.64 6.834,6.271 6.328,6.901 5.675,7.328 4.875,7.552 4.1,7.71 2.794,7.789 0.957,7.789 H 0 Z m 0,-16.681 h -5.269 v 29.833 h 6.694 0.994 c 1.037,0 1.887,-0.03 2.55,-0.089 0.662,-0.059 1.353,-0.204 2.072,-0.434 0.718,-0.231 1.403,-0.576 2.053,-1.036 1.175,-0.829 2.097,-1.915 2.765,-3.257 0.669,-1.343 1.004,-2.764 1.004,-4.264 0,-0.973 -0.125,-1.927 -0.375,-2.862 C 12.237,0.275 11.85,-0.606 11.325,-1.435 10.8,-2.264 10.188,-2.975 9.488,-3.566 8.875,-4.08 8.172,-4.475 7.378,-4.751 6.584,-5.027 5.778,-5.205 4.959,-5.284 4.141,-5.363 3.231,-5.402 2.231,-5.402 H 1.031 0 Z"
             style="fill:#00919a;fill-opacity:1;fill-rule:nonzero;stroke:none"
             id="path60" />
        </g>
        <g
           id="g62"
           transform="translate(545.1636,112.7845)">
          <path
             d="m 0,0 h 2.869 c 1.962,0 3.362,0.414 4.2,1.242 0.863,0.868 1.294,1.946 1.294,3.235 0,0.656 -0.132,1.288 -0.394,1.892 C 7.707,6.974 7.325,7.46 6.825,7.828 6.312,8.249 5.766,8.521 5.185,8.646 4.603,8.771 3.844,8.834 2.906,8.834 H 0 Z M -5.269,-15.636 V 14.197 H 2.962 C 4.663,14.17 6.075,14.029 7.2,13.772 c 1.125,-0.255 2.169,-0.811 3.132,-1.666 0.674,-0.59 1.259,-1.278 1.752,-2.06 0.494,-0.782 0.875,-1.623 1.145,-2.524 0.268,-0.9 0.402,-1.824 0.402,-2.77 0,-1.091 -0.215,-2.241 -0.647,-3.45 -0.431,-1.21 -0.996,-2.222 -1.696,-3.037 -1.25,-1.419 -2.925,-2.379 -5.025,-2.878 l 7.669,-11.023 H 7.444 L 0.075,-4.199 H 0 v -11.437 z"
             style="fill:#00919a;fill-opacity:1;fill-rule:nonzero;stroke:none"
             id="path64" />
        </g>
        <g
           id="g66"
           transform="translate(578.3818,110.2415)">
          <path
             d="M 0,0 H 6.075 L 3.037,9.03 Z M -10.875,-13.093 0.956,16.74 h 4.106 l 11.944,-29.833 h -5.793 l -3.075,7.69 H -1.913 l -3.149,-7.69 z"
             style="fill:#00919a;fill-opacity:1;fill-rule:nonzero;stroke:none"
             id="path68" />
        </g>
        <path
           d="m 605.956,126.982 h 5.269 V 97.149 h -5.269 z"
           style="fill:#00919a;fill-opacity:1;fill-rule:nonzero;stroke:none"
           id="path70" />
        <g
           id="g72"
           transform="translate(622.3174,105.5677)">
          <path
             d="m 0,0 h 5.493 c 0,-1.144 0.382,-2.054 1.145,-2.73 0.761,-0.677 1.693,-1.016 2.793,-1.016 0.65,0 1.259,0.161 1.829,0.482 0.568,0.323 1.021,0.769 1.359,1.34 0.337,0.571 0.506,1.211 0.506,1.921 0,1.444 -0.437,2.518 -1.312,3.22 C 10.938,3.92 9.725,4.527 8.175,5.039 6.912,5.486 5.931,5.89 5.231,6.251 4.531,6.612 3.875,7.121 3.263,7.778 2.563,8.54 2.016,9.424 1.622,10.429 c -0.394,1.005 -0.591,2.032 -0.591,3.084 0,1.562 0.378,2.998 1.134,4.305 0.757,1.307 1.778,2.328 3.066,3.064 1.288,0.735 2.675,1.103 4.163,1.103 1.099,0 2.147,-0.214 3.14,-0.64 0.994,-0.428 1.881,-1.033 2.663,-1.815 0.781,-0.782 1.394,-1.695 1.837,-2.74 0.444,-1.045 0.666,-2.14 0.666,-3.283 h -5.419 c -0.037,0.92 -0.365,1.669 -0.984,2.248 -0.619,0.578 -1.354,0.867 -2.203,0.867 -0.851,0 -1.529,-0.299 -2.034,-0.896 C 6.553,15.128 6.3,14.377 6.3,13.471 6.3,12.485 6.621,11.73 7.266,11.205 7.909,10.68 8.774,10.227 9.862,9.846 c 1.363,-0.473 2.444,-0.89 3.244,-1.251 0.8,-0.361 1.563,-0.864 2.288,-1.507 2,-1.67 3,-3.933 3,-6.786 0,-1.303 -0.241,-2.535 -0.722,-3.699 -0.482,-1.165 -1.148,-2.174 -1.997,-3.029 -0.85,-0.855 -1.837,-1.522 -2.962,-2.003 -1.125,-0.479 -2.307,-0.719 -3.544,-0.719 -1.588,0 -3.091,0.402 -4.51,1.205 C 3.24,-7.14 2.109,-6.04 1.266,-4.644 0.422,-3.247 0,-1.699 0,0"
             style="fill:#00919a;fill-opacity:1;fill-rule:nonzero;stroke:none"
             id="path74" />
        </g>
        <g
           id="g76"
           transform="translate(657.4951,110.2415)">
          <path
             d="M 0,0 H 6.075 L 3.037,9.03 Z M -10.875,-13.093 0.956,16.74 h 4.106 l 11.944,-29.833 h -5.793 l -3.075,7.69 H -1.913 l -3.149,-7.69 z"
             style="fill:#00919a;fill-opacity:1;fill-rule:nonzero;stroke:none"
             id="path78" />
        </g>
        <g
           id="g80"
           transform="translate(681.7881,97.1487)">
          <path
             d="M 0,0 V 29.833 H 5.269 V 5.363 H 13.95 V 0 Z"
             style="fill:#00919a;fill-opacity:1;fill-rule:nonzero;stroke:none"
             id="path82" />
        </g>
      </g>
    </g>
  </g>
</svg>
